<svg xmlns="http://www.w3.org/2000/svg" width="32" height="32" viewBox="0 0 16 16"><path style="line-height:normal;text-indent:0;text-align:start;text-decoration-line:none;text-decoration-style:solid;text-decoration-color:#000;text-transform:none;block-progression:tb;white-space:normal;isolation:auto;mix-blend-mode:normal;solid-color:#fff;solid-opacity:1" fill-rule="evenodd" d="M 4.484375 4 A 0.50005 0.50005 0 0 0 4.5351562 5 L 11.464844 5 A 0.50005 0.50005 0 1 0 11.464844 4 L 4.5351562 4 A 0.50005 0.50005 0 0 0 4.484375 4 z M 4.484375 7 A 0.50005 0.50005 0 0 0 4.5351562 8 L 11.464844 8 A 0.50005 0.50005 0 1 0 11.464844 7 L 4.5351562 7 A 0.50005 0.50005 0 0 0 4.484375 7 z M 4.484375 10 A 0.50005 0.50005 0 0 0 4.5351562 11 L 11.464844 11 A 0.50005 0.50005 0 1 0 11.464844 10 L 4.5351562 10 A 0.50005 0.50005 0 0 0 4.484375 10 z " color="#fff" enable-background="accumulate" font-family="sans-serif" font-weight="400"  overflow="visible"/></svg>